<?xml version="1.0" encoding="UTF-8" standalone="no"?>
<!DOCTYPE svg PUBLIC "-//W3C//DTD SVG 1.1//EN"
 "http://www.w3.org/Graphics/SVG/1.1/DTD/svg11.dtd">
<!-- Generated by graphviz version 2.40.1 (20161225.0304)
 -->
<!-- Title: %3 Pages: 1 -->
<svg width="1106pt" height="548pt"
 viewBox="0.00 0.00 1105.50 548.00" xmlns="http://www.w3.org/2000/svg" xmlns:xlink="http://www.w3.org/1999/xlink">
<g id="graph0" class="graph" transform="scale(1 1) rotate(0) translate(4 544)">
<title>%3</title>
<polygon fill="#ffffff" stroke="transparent" points="-4,4 -4,-544 1101.5,-544 1101.5,4 -4,4"/>
<!-- [root] azurerm_bastion_host.tf -->
<g id="node1" class="node">
<title>[root] azurerm_bastion_host.tf</title>
<polygon fill="none" stroke="#000000" points="766,-396 617,-396 617,-360 766,-360 766,-396"/>
<text text-anchor="middle" x="691.5" y="-374.3" font-family="Times,serif" font-size="14.00" fill="#000000">azurerm_bastion_host.tf</text>
</g>
<!-- [root] azurerm_public_ip.tf -->
<g id="node6" class="node">
<title>[root] azurerm_public_ip.tf</title>
<polygon fill="none" stroke="#000000" points="776,-180 645,-180 645,-144 776,-144 776,-180"/>
<text text-anchor="middle" x="710.5" y="-158.3" font-family="Times,serif" font-size="14.00" fill="#000000">azurerm_public_ip.tf</text>
</g>
<!-- [root] azurerm_bastion_host.tf&#45;&gt;[root] azurerm_public_ip.tf -->
<g id="edge1" class="edge">
<title>[root] azurerm_bastion_host.tf&#45;&gt;[root] azurerm_public_ip.tf</title>
<path fill="none" stroke="#000000" d="M693.0872,-359.9555C696.3983,-322.3144 704.0623,-235.1867 708.0261,-190.1246"/>
<polygon fill="#000000" stroke="#000000" points="711.5141,-190.4133 708.9039,-180.1451 704.541,-189.7999 711.5141,-190.4133"/>
</g>
<!-- [root] azurerm_subnet.tf -->
<g id="node8" class="node">
<title>[root] azurerm_subnet.tf</title>
<polygon fill="none" stroke="#000000" points="606.5,-252 490.5,-252 490.5,-216 606.5,-216 606.5,-252"/>
<text text-anchor="middle" x="548.5" y="-230.3" font-family="Times,serif" font-size="14.00" fill="#000000">azurerm_subnet.tf</text>
</g>
<!-- [root] azurerm_bastion_host.tf&#45;&gt;[root] azurerm_subnet.tf -->
<g id="edge2" class="edge">
<title>[root] azurerm_bastion_host.tf&#45;&gt;[root] azurerm_subnet.tf</title>
<path fill="none" stroke="#000000" d="M687.7217,-359.7473C682.8134,-339.9771 672.5276,-308.5211 653.5,-288 641.4415,-274.9949 625.5404,-264.6124 609.7715,-256.5653"/>
<polygon fill="#000000" stroke="#000000" points="611.0584,-253.2999 600.5323,-252.095 608.0096,-259.6011 611.0584,-253.2999"/>
</g>
<!-- [root] azurerm_managed_disk.tf -->
<g id="node2" class="node">
<title>[root] azurerm_managed_disk.tf</title>
<polygon fill="none" stroke="#000000" points="159,-252 0,-252 0,-216 159,-216 159,-252"/>
<text text-anchor="middle" x="79.5" y="-230.3" font-family="Times,serif" font-size="14.00" fill="#000000">azurerm_managed_disk.tf</text>
</g>
<!-- [root] azurerm_resource_group.tf -->
<g id="node7" class="node">
<title>[root] azurerm_resource_group.tf</title>
<polygon fill="none" stroke="#000000" points="487.5,-108 323.5,-108 323.5,-72 487.5,-72 487.5,-108"/>
<text text-anchor="middle" x="405.5" y="-86.3" font-family="Times,serif" font-size="14.00" fill="#000000">azurerm_resource_group.tf</text>
</g>
<!-- [root] azurerm_managed_disk.tf&#45;&gt;[root] azurerm_resource_group.tf -->
<g id="edge3" class="edge">
<title>[root] azurerm_managed_disk.tf&#45;&gt;[root] azurerm_resource_group.tf</title>
<path fill="none" stroke="#000000" d="M120.458,-215.9081C180.1951,-189.5212 291.1024,-140.5315 355.5496,-112.064"/>
<polygon fill="#000000" stroke="#000000" points="356.9764,-115.2601 364.7095,-108.0179 354.1479,-108.8569 356.9764,-115.2601"/>
</g>
<!-- [root] azurerm_network_interface.tf -->
<g id="node3" class="node">
<title>[root] azurerm_network_interface.tf</title>
<polygon fill="none" stroke="#000000" points="644,-324 465,-324 465,-288 644,-288 644,-324"/>
<text text-anchor="middle" x="554.5" y="-302.3" font-family="Times,serif" font-size="14.00" fill="#000000">azurerm_network_interface.tf</text>
</g>
<!-- [root] azurerm_network_interface.tf&#45;&gt;[root] azurerm_subnet.tf -->
<g id="edge4" class="edge">
<title>[root] azurerm_network_interface.tf&#45;&gt;[root] azurerm_subnet.tf</title>
<path fill="none" stroke="#000000" d="M552.9859,-287.8314C552.3442,-280.131 551.5812,-270.9743 550.8681,-262.4166"/>
<polygon fill="#000000" stroke="#000000" points="554.3529,-262.088 550.0344,-252.4133 547.3771,-262.6694 554.3529,-262.088"/>
</g>
<!-- [root] azurerm_network_security_group.tf -->
<g id="node4" class="node">
<title>[root] azurerm_network_security_group.tf</title>
<polygon fill="none" stroke="#000000" points="1006.5,-180 794.5,-180 794.5,-144 1006.5,-144 1006.5,-180"/>
<text text-anchor="middle" x="900.5" y="-158.3" font-family="Times,serif" font-size="14.00" fill="#000000">azurerm_network_security_group.tf</text>
</g>
<!-- [root] azurerm_network_security_group.tf&#45;&gt;[root] azurerm_resource_group.tf -->
<g id="edge5" class="edge">
<title>[root] azurerm_network_security_group.tf&#45;&gt;[root] azurerm_resource_group.tf</title>
<path fill="none" stroke="#000000" d="M794.3117,-145.2569C791.3435,-144.8282 788.4016,-144.4083 785.5,-144 661.0059,-126.4804 626.6047,-128.2891 497.9584,-108.0063"/>
<polygon fill="#000000" stroke="#000000" points="498.1345,-104.4904 487.7087,-106.3754 497.0344,-111.4034 498.1345,-104.4904"/>
</g>
<!-- [root] var.tags -->
<g id="node19" class="node">
<title>[root] var.tags</title>
<polygon fill="none" stroke="#000000" points="734,-108 681,-108 681,-72 740,-72 740,-102 734,-108"/>
<polyline fill="none" stroke="#000000" points="734,-108 734,-102 "/>
<polyline fill="none" stroke="#000000" points="740,-102 734,-102 "/>
<text text-anchor="middle" x="710.5" y="-86.3" font-family="Times,serif" font-size="14.00" fill="#000000">var.tags</text>
</g>
<!-- [root] azurerm_network_security_group.tf&#45;&gt;[root] var.tags -->
<g id="edge6" class="edge">
<title>[root] azurerm_network_security_group.tf&#45;&gt;[root] var.tags</title>
<path fill="none" stroke="#000000" d="M852.555,-143.8314C820.7516,-131.7795 779.5353,-116.1608 749.697,-104.8536"/>
<polygon fill="#000000" stroke="#000000" points="750.6355,-101.4664 740.0441,-101.1957 748.155,-108.0122 750.6355,-101.4664"/>
</g>
<!-- [root] azurerm_network_security_group.tfone -->
<g id="node5" class="node">
<title>[root] azurerm_network_security_group.tfone</title>
<polygon fill="none" stroke="#000000" points="414.5,-252 182.5,-252 182.5,-216 414.5,-216 414.5,-252"/>
<text text-anchor="middle" x="298.5" y="-230.3" font-family="Times,serif" font-size="14.00" fill="#000000">azurerm_network_security_group.tfone</text>
</g>
<!-- [root] azurerm_network_security_group.tfone&#45;&gt;[root] azurerm_resource_group.tf -->
<g id="edge7" class="edge">
<title>[root] azurerm_network_security_group.tfone&#45;&gt;[root] azurerm_resource_group.tf</title>
<path fill="none" stroke="#000000" d="M299.5397,-215.8029C301.462,-196.3686 306.9335,-165.4714 322.5,-144 331.3544,-131.7869 343.8906,-121.6018 356.5443,-113.4893"/>
<polygon fill="#000000" stroke="#000000" points="358.5351,-116.3756 365.2795,-108.2047 354.9117,-110.3864 358.5351,-116.3756"/>
</g>
<!-- [root] azurerm_public_ip.tf&#45;&gt;[root] azurerm_resource_group.tf -->
<g id="edge8" class="edge">
<title>[root] azurerm_public_ip.tf&#45;&gt;[root] azurerm_resource_group.tf</title>
<path fill="none" stroke="#000000" d="M644.7399,-145.9719C641.9565,-145.3037 639.2008,-144.6441 636.5,-144 589.2054,-132.7203 536.4064,-120.3602 493.2373,-110.315"/>
<polygon fill="#000000" stroke="#000000" points="493.8648,-106.8676 483.3318,-108.0114 492.2791,-113.6856 493.8648,-106.8676"/>
</g>
<!-- [root] azurerm_public_ip.tf&#45;&gt;[root] var.tags -->
<g id="edge9" class="edge">
<title>[root] azurerm_public_ip.tf&#45;&gt;[root] var.tags</title>
<path fill="none" stroke="#000000" d="M710.5,-143.8314C710.5,-136.131 710.5,-126.9743 710.5,-118.4166"/>
<polygon fill="#000000" stroke="#000000" points="714.0001,-118.4132 710.5,-108.4133 707.0001,-118.4133 714.0001,-118.4132"/>
</g>
<!-- [root] provider.azurerm -->
<g id="node13" class="node">
<title>[root] provider.azurerm</title>
<polygon fill="none" stroke="#000000" points="244.5,-36 142.4471,-18 244.5,0 346.5529,-18 244.5,-36"/>
<text text-anchor="middle" x="244.5" y="-14.3" font-family="Times,serif" font-size="14.00" fill="#000000">provider.azurerm</text>
</g>
<!-- [root] azurerm_resource_group.tf&#45;&gt;[root] provider.azurerm -->
<g id="edge10" class="edge">
<title>[root] azurerm_resource_group.tf&#45;&gt;[root] provider.azurerm</title>
<path fill="none" stroke="#000000" d="M364.8729,-71.8314C339.7082,-60.5776 307.5887,-46.2136 282.8587,-35.1542"/>
<polygon fill="#000000" stroke="#000000" points="283.9922,-31.8271 273.4346,-30.9397 281.1345,-38.2172 283.9922,-31.8271"/>
</g>
<!-- [root] var.location -->
<g id="node16" class="node">
<title>[root] var.location</title>
<polygon fill="none" stroke="#000000" points="440,-36 365,-36 365,0 446,0 446,-30 440,-36"/>
<polyline fill="none" stroke="#000000" points="440,-36 440,-30 "/>
<polyline fill="none" stroke="#000000" points="446,-30 440,-30 "/>
<text text-anchor="middle" x="405.5" y="-14.3" font-family="Times,serif" font-size="14.00" fill="#000000">var.location</text>
</g>
<!-- [root] azurerm_resource_group.tf&#45;&gt;[root] var.location -->
<g id="edge11" class="edge">
<title>[root] azurerm_resource_group.tf&#45;&gt;[root] var.location</title>
<path fill="none" stroke="#000000" d="M405.5,-71.8314C405.5,-64.131 405.5,-54.9743 405.5,-46.4166"/>
<polygon fill="#000000" stroke="#000000" points="409.0001,-46.4132 405.5,-36.4133 402.0001,-46.4133 409.0001,-46.4132"/>
</g>
<!-- [root] var.resource_group -->
<g id="node17" class="node">
<title>[root] var.resource_group</title>
<polygon fill="none" stroke="#000000" points="580.5,-36 464.5,-36 464.5,0 586.5,0 586.5,-30 580.5,-36"/>
<polyline fill="none" stroke="#000000" points="580.5,-36 580.5,-30 "/>
<polyline fill="none" stroke="#000000" points="586.5,-30 580.5,-30 "/>
<text text-anchor="middle" x="525.5" y="-14.3" font-family="Times,serif" font-size="14.00" fill="#000000">var.resource_group</text>
</g>
<!-- [root] azurerm_resource_group.tf&#45;&gt;[root] var.resource_group -->
<g id="edge12" class="edge">
<title>[root] azurerm_resource_group.tf&#45;&gt;[root] var.resource_group</title>
<path fill="none" stroke="#000000" d="M435.7811,-71.8314C451.1298,-62.6221 469.9498,-51.3301 486.3823,-41.4706"/>
<polygon fill="#000000" stroke="#000000" points="488.4544,-44.3091 495.2286,-36.1628 484.8529,-38.3066 488.4544,-44.3091"/>
</g>
<!-- [root] azurerm_virtual_network.tf -->
<g id="node12" class="node">
<title>[root] azurerm_virtual_network.tf</title>
<polygon fill="none" stroke="#000000" points="627,-180 460,-180 460,-144 627,-144 627,-180"/>
<text text-anchor="middle" x="543.5" y="-158.3" font-family="Times,serif" font-size="14.00" fill="#000000">azurerm_virtual_network.tf</text>
</g>
<!-- [root] azurerm_subnet.tf&#45;&gt;[root] azurerm_virtual_network.tf -->
<g id="edge13" class="edge">
<title>[root] azurerm_subnet.tf&#45;&gt;[root] azurerm_virtual_network.tf</title>
<path fill="none" stroke="#000000" d="M547.2383,-215.8314C546.7035,-208.131 546.0677,-198.9743 545.4734,-190.4166"/>
<polygon fill="#000000" stroke="#000000" points="548.9632,-190.1467 544.7787,-180.4133 541.98,-190.6317 548.9632,-190.1467"/>
</g>
<!-- [root] var.subnet_count -->
<g id="node18" class="node">
<title>[root] var.subnet_count</title>
<polygon fill="none" stroke="#000000" points="435.5,-180 331.5,-180 331.5,-144 441.5,-144 441.5,-174 435.5,-180"/>
<polyline fill="none" stroke="#000000" points="435.5,-180 435.5,-174 "/>
<polyline fill="none" stroke="#000000" points="441.5,-174 435.5,-174 "/>
<text text-anchor="middle" x="386.5" y="-158.3" font-family="Times,serif" font-size="14.00" fill="#000000">var.subnet_count</text>
</g>
<!-- [root] azurerm_subnet.tf&#45;&gt;[root] var.subnet_count -->
<g id="edge14" class="edge">
<title>[root] azurerm_subnet.tf&#45;&gt;[root] var.subnet_count</title>
<path fill="none" stroke="#000000" d="M507.6206,-215.8314C485.954,-206.2018 459.1637,-194.295 436.2922,-184.1299"/>
<polygon fill="#000000" stroke="#000000" points="437.6451,-180.9011 427.0855,-180.038 434.8021,-187.2978 437.6451,-180.9011"/>
</g>
<!-- [root] azurerm_subnet_network_security_group_association.tf -->
<g id="node9" class="node">
<title>[root] azurerm_subnet_network_security_group_association.tf</title>
<polygon fill="none" stroke="#000000" points="1060,-324 739,-324 739,-288 1060,-288 1060,-324"/>
<text text-anchor="middle" x="899.5" y="-302.3" font-family="Times,serif" font-size="14.00" fill="#000000">azurerm_subnet_network_security_group_association.tf</text>
</g>
<!-- [root] azurerm_subnet_network_security_group_association.tf&#45;&gt;[root] azurerm_network_security_group.tf -->
<g id="edge15" class="edge">
<title>[root] azurerm_subnet_network_security_group_association.tf&#45;&gt;[root] azurerm_network_security_group.tf</title>
<path fill="none" stroke="#000000" d="M899.6267,-287.7623C899.7972,-263.201 900.1024,-219.2474 900.3031,-190.3541"/>
<polygon fill="#000000" stroke="#000000" points="903.8048,-190.1137 900.3744,-180.0896 896.8049,-190.065 903.8048,-190.1137"/>
</g>
<!-- [root] azurerm_subnet_network_security_group_association.tf&#45;&gt;[root] azurerm_subnet.tf -->
<g id="edge16" class="edge">
<title>[root] azurerm_subnet_network_security_group_association.tf&#45;&gt;[root] azurerm_subnet.tf</title>
<path fill="none" stroke="#000000" d="M811.3809,-287.9243C751.0657,-275.5519 672.2637,-259.3874 616.7208,-247.994"/>
<polygon fill="#000000" stroke="#000000" points="617.1294,-244.505 606.6301,-245.9241 615.7228,-251.3622 617.1294,-244.505"/>
</g>
<!-- [root] azurerm_subnet_network_security_group_association.tfone -->
<g id="node10" class="node">
<title>[root] azurerm_subnet_network_security_group_association.tfone</title>
<polygon fill="none" stroke="#000000" points="447,-324 106,-324 106,-288 447,-288 447,-324"/>
<text text-anchor="middle" x="276.5" y="-302.3" font-family="Times,serif" font-size="14.00" fill="#000000">azurerm_subnet_network_security_group_association.tfone</text>
</g>
<!-- [root] azurerm_subnet_network_security_group_association.tfone&#45;&gt;[root] azurerm_network_security_group.tfone -->
<g id="edge17" class="edge">
<title>[root] azurerm_subnet_network_security_group_association.tfone&#45;&gt;[root] azurerm_network_security_group.tfone</title>
<path fill="none" stroke="#000000" d="M282.0515,-287.8314C284.4303,-280.0463 287.2638,-270.7729 289.9033,-262.1347"/>
<polygon fill="#000000" stroke="#000000" points="293.2987,-262.9996 292.8737,-252.4133 286.6042,-260.954 293.2987,-262.9996"/>
</g>
<!-- [root] azurerm_subnet_network_security_group_association.tfone&#45;&gt;[root] azurerm_subnet.tf -->
<g id="edge18" class="edge">
<title>[root] azurerm_subnet_network_security_group_association.tfone&#45;&gt;[root] azurerm_subnet.tf</title>
<path fill="none" stroke="#000000" d="M344.786,-287.9243C386.3068,-276.9335 439.1327,-262.9502 480.5858,-251.9773"/>
<polygon fill="#000000" stroke="#000000" points="481.5531,-255.3419 490.3245,-249.3994 479.7618,-248.5749 481.5531,-255.3419"/>
</g>
<!-- [root] azurerm_virtual_machine.tf -->
<g id="node11" class="node">
<title>[root] azurerm_virtual_machine.tf</title>
<polygon fill="none" stroke="#000000" points="562,-396 393,-396 393,-360 562,-360 562,-396"/>
<text text-anchor="middle" x="477.5" y="-374.3" font-family="Times,serif" font-size="14.00" fill="#000000">azurerm_virtual_machine.tf</text>
</g>
<!-- [root] azurerm_virtual_machine.tf&#45;&gt;[root] azurerm_managed_disk.tf -->
<g id="edge19" class="edge">
<title>[root] azurerm_virtual_machine.tf&#45;&gt;[root] azurerm_managed_disk.tf</title>
<path fill="none" stroke="#000000" d="M392.6492,-371.1863C286.9448,-361.9074 117.5757,-344.13 96.5,-324 80.1248,-308.3596 76.7073,-282.2702 76.8986,-262.1966"/>
<polygon fill="#000000" stroke="#000000" points="80.4018,-262.1818 77.2972,-252.052 73.4072,-261.9069 80.4018,-262.1818"/>
</g>
<!-- [root] azurerm_virtual_machine.tf&#45;&gt;[root] azurerm_network_interface.tf -->
<g id="edge20" class="edge">
<title>[root] azurerm_virtual_machine.tf&#45;&gt;[root] azurerm_network_interface.tf</title>
<path fill="none" stroke="#000000" d="M496.9304,-359.8314C506.232,-351.1337 517.5204,-340.5783 527.6286,-331.1265"/>
<polygon fill="#000000" stroke="#000000" points="530.1621,-333.5493 535.0759,-324.1628 525.3811,-328.4363 530.1621,-333.5493"/>
</g>
<!-- [root] azurerm_virtual_network.tf&#45;&gt;[root] azurerm_resource_group.tf -->
<g id="edge21" class="edge">
<title>[root] azurerm_virtual_network.tf&#45;&gt;[root] azurerm_resource_group.tf</title>
<path fill="none" stroke="#000000" d="M508.6768,-143.8314C490.6989,-134.4516 468.5797,-122.9112 449.4384,-112.9244"/>
<polygon fill="#000000" stroke="#000000" points="450.7969,-109.6855 440.3121,-108.1628 447.5589,-115.8916 450.7969,-109.6855"/>
</g>
<!-- [root] azurerm_virtual_network.tf&#45;&gt;[root] var.tags -->
<g id="edge22" class="edge">
<title>[root] azurerm_virtual_network.tf&#45;&gt;[root] var.tags</title>
<path fill="none" stroke="#000000" d="M585.6412,-143.8314C611.9449,-132.4908 645.5742,-117.992 671.3036,-106.8991"/>
<polygon fill="#000000" stroke="#000000" points="672.9488,-110.0012 680.746,-102.8281 670.1774,-103.5732 672.9488,-110.0012"/>
</g>
<!-- [root] var.virtual_networks -->
<g id="node20" class="node">
<title>[root] var.virtual_networks</title>
<polygon fill="none" stroke="#000000" points="629,-108 506,-108 506,-72 635,-72 635,-102 629,-108"/>
<polyline fill="none" stroke="#000000" points="629,-108 629,-102 "/>
<polyline fill="none" stroke="#000000" points="635,-102 629,-102 "/>
<text text-anchor="middle" x="570.5" y="-86.3" font-family="Times,serif" font-size="14.00" fill="#000000">var.virtual_networks</text>
</g>
<!-- [root] azurerm_virtual_network.tf&#45;&gt;[root] var.virtual_networks -->
<g id="edge23" class="edge">
<title>[root] azurerm_virtual_network.tf&#45;&gt;[root] var.virtual_networks</title>
<path fill="none" stroke="#000000" d="M550.3132,-143.8314C553.2644,-135.9617 556.7858,-126.5712 560.055,-117.8533"/>
<polygon fill="#000000" stroke="#000000" points="563.3609,-119.0055 563.595,-108.4133 556.8066,-116.5476 563.3609,-119.0055"/>
</g>
<!-- [root] var.bastion_ports -->
<g id="node14" class="node">
<title>[root] var.bastion_ports</title>
<polygon fill="none" stroke="#000000" points="963.5,-396 859.5,-396 859.5,-360 969.5,-360 969.5,-390 963.5,-396"/>
<polyline fill="none" stroke="#000000" points="963.5,-396 963.5,-390 "/>
<polyline fill="none" stroke="#000000" points="969.5,-390 963.5,-390 "/>
<text text-anchor="middle" x="914.5" y="-374.3" font-family="Times,serif" font-size="14.00" fill="#000000">var.bastion_ports</text>
</g>
<!-- [root] var.ingress_ports -->
<g id="node15" class="node">
<title>[root] var.ingress_ports</title>
<polygon fill="none" stroke="#000000" points="1091.5,-396 987.5,-396 987.5,-360 1097.5,-360 1097.5,-390 1091.5,-396"/>
<polyline fill="none" stroke="#000000" points="1091.5,-396 1091.5,-390 "/>
<polyline fill="none" stroke="#000000" points="1097.5,-390 1091.5,-390 "/>
<text text-anchor="middle" x="1042.5" y="-374.3" font-family="Times,serif" font-size="14.00" fill="#000000">var.ingress_ports</text>
</g>
<!-- [root] meta.count&#45;boundary (EachMode fixup) -->
<g id="node21" class="node">
<title>[root] meta.count&#45;boundary (EachMode fixup)</title>
<ellipse fill="none" stroke="#000000" cx="812.5" cy="-450" rx="176.5689" ry="18"/>
<text text-anchor="middle" x="812.5" y="-446.3" font-family="Times,serif" font-size="14.00" fill="#000000">[root] meta.count&#45;boundary (EachMode fixup)</text>
</g>
<!-- [root] meta.count&#45;boundary (EachMode fixup)&#45;&gt;[root] azurerm_bastion_host.tf -->
<g id="edge24" class="edge">
<title>[root] meta.count&#45;boundary (EachMode fixup)&#45;&gt;[root] azurerm_bastion_host.tf</title>
<path fill="none" stroke="#000000" d="M782.5899,-432.2022C767.0011,-422.9262 747.7352,-411.4623 730.9424,-401.4698"/>
<polygon fill="#000000" stroke="#000000" points="732.29,-398.199 721.9065,-396.0931 728.7104,-404.2145 732.29,-398.199"/>
</g>
<!-- [root] meta.count&#45;boundary (EachMode fixup)&#45;&gt;[root] azurerm_subnet_network_security_group_association.tf -->
<g id="edge25" class="edge">
<title>[root] meta.count&#45;boundary (EachMode fixup)&#45;&gt;[root] azurerm_subnet_network_security_group_association.tf</title>
<path fill="none" stroke="#000000" d="M818.1273,-431.8753C824.4247,-413.048 835.7145,-383.1589 850.5,-360 856.863,-350.0334 865.1061,-340.1508 873.0101,-331.6178"/>
<polygon fill="#000000" stroke="#000000" points="875.7257,-333.8423 880.1099,-324.1971 870.6678,-329.0031 875.7257,-333.8423"/>
</g>
<!-- [root] meta.count&#45;boundary (EachMode fixup)&#45;&gt;[root] azurerm_subnet_network_security_group_association.tfone -->
<g id="edge26" class="edge">
<title>[root] meta.count&#45;boundary (EachMode fixup)&#45;&gt;[root] azurerm_subnet_network_security_group_association.tfone</title>
<path fill="none" stroke="#000000" d="M715.41,-434.9365C680.1997,-426.7864 641.0975,-414.4584 608.5,-396 588.5348,-384.6947 591.8894,-370.5211 571.5,-360 545.858,-346.7685 487.1208,-334.8718 428.7529,-325.6345"/>
<polygon fill="#000000" stroke="#000000" points="429.0527,-322.1391 418.6331,-324.0583 427.9753,-329.0557 429.0527,-322.1391"/>
</g>
<!-- [root] meta.count&#45;boundary (EachMode fixup)&#45;&gt;[root] azurerm_virtual_machine.tf -->
<g id="edge27" class="edge">
<title>[root] meta.count&#45;boundary (EachMode fixup)&#45;&gt;[root] azurerm_virtual_machine.tf</title>
<path fill="none" stroke="#000000" d="M736.4833,-433.6621C687.517,-423.138 623.5042,-409.38 571.3715,-398.1754"/>
<polygon fill="#000000" stroke="#000000" points="571.9592,-394.7218 561.447,-396.0423 570.4883,-401.5655 571.9592,-394.7218"/>
</g>
<!-- [root] meta.count&#45;boundary (EachMode fixup)&#45;&gt;[root] var.bastion_ports -->
<g id="edge28" class="edge">
<title>[root] meta.count&#45;boundary (EachMode fixup)&#45;&gt;[root] var.bastion_ports</title>
<path fill="none" stroke="#000000" d="M837.9758,-432.0171C850.8762,-422.9109 866.7124,-411.7324 880.6249,-401.9118"/>
<polygon fill="#000000" stroke="#000000" points="882.8442,-404.6295 888.9955,-396.0032 878.8074,-398.9107 882.8442,-404.6295"/>
</g>
<!-- [root] meta.count&#45;boundary (EachMode fixup)&#45;&gt;[root] var.ingress_ports -->
<g id="edge29" class="edge">
<title>[root] meta.count&#45;boundary (EachMode fixup)&#45;&gt;[root] var.ingress_ports</title>
<path fill="none" stroke="#000000" d="M867.2985,-432.8457C900.4547,-422.4664 942.9089,-409.1764 977.7218,-398.2784"/>
<polygon fill="#000000" stroke="#000000" points="978.8265,-401.6002 987.3241,-395.2724 976.7352,-394.9198 978.8265,-401.6002"/>
</g>
<!-- [root] provider.azurerm (close) -->
<g id="node22" class="node">
<title>[root] provider.azurerm (close)</title>
<ellipse fill="none" stroke="#000000" cx="496.5" cy="-450" rx="120.7786" ry="18"/>
<text text-anchor="middle" x="496.5" y="-446.3" font-family="Times,serif" font-size="14.00" fill="#000000">[root] provider.azurerm (close)</text>
</g>
<!-- [root] provider.azurerm (close)&#45;&gt;[root] azurerm_bastion_host.tf -->
<g id="edge30" class="edge">
<title>[root] provider.azurerm (close)&#45;&gt;[root] azurerm_bastion_host.tf</title>
<path fill="none" stroke="#000000" d="M541.7271,-433.3008C568.8173,-423.2982 603.5514,-410.4733 632.7488,-399.6928"/>
<polygon fill="#000000" stroke="#000000" points="634.2505,-402.8693 642.4192,-396.1222 631.8259,-396.3026 634.2505,-402.8693"/>
</g>
<!-- [root] provider.azurerm (close)&#45;&gt;[root] azurerm_subnet_network_security_group_association.tf -->
<g id="edge31" class="edge">
<title>[root] provider.azurerm (close)&#45;&gt;[root] azurerm_subnet_network_security_group_association.tf</title>
<path fill="none" stroke="#000000" d="M583.2746,-437.4164C651.9038,-426.6867 741.6138,-410.7083 775.5,-396 780.611,-393.7816 832.1582,-355.9074 867.1616,-330.0053"/>
<polygon fill="#000000" stroke="#000000" points="869.2754,-332.7951 875.2287,-324.031 865.1094,-327.1698 869.2754,-332.7951"/>
</g>
<!-- [root] provider.azurerm (close)&#45;&gt;[root] azurerm_subnet_network_security_group_association.tfone -->
<g id="edge32" class="edge">
<title>[root] provider.azurerm (close)&#45;&gt;[root] azurerm_subnet_network_security_group_association.tfone</title>
<path fill="none" stroke="#000000" d="M455.2978,-433.0569C433.5523,-423.4 406.825,-410.3726 384.5,-396 354.6566,-376.7871 323.8685,-350.3604 302.839,-331.1153"/>
<polygon fill="#000000" stroke="#000000" points="304.9966,-328.3433 295.2794,-324.1211 300.2427,-333.4815 304.9966,-328.3433"/>
</g>
<!-- [root] provider.azurerm (close)&#45;&gt;[root] azurerm_virtual_machine.tf -->
<g id="edge33" class="edge">
<title>[root] provider.azurerm (close)&#45;&gt;[root] azurerm_virtual_machine.tf</title>
<path fill="none" stroke="#000000" d="M491.7055,-431.8314C489.6511,-424.0463 487.204,-414.7729 484.9244,-406.1347"/>
<polygon fill="#000000" stroke="#000000" points="488.2948,-405.1892 482.3591,-396.4133 481.5265,-406.9753 488.2948,-405.1892"/>
</g>
<!-- [root] root -->
<g id="node23" class="node">
<title>[root] root</title>
<ellipse fill="none" stroke="#000000" cx="654.5" cy="-522" rx="47.3916" ry="18"/>
<text text-anchor="middle" x="654.5" y="-518.3" font-family="Times,serif" font-size="14.00" fill="#000000">[root] root</text>
</g>
<!-- [root] root&#45;&gt;[root] meta.count&#45;boundary (EachMode fixup) -->
<g id="edge34" class="edge">
<title>[root] root&#45;&gt;[root] meta.count&#45;boundary (EachMode fixup)</title>
<path fill="none" stroke="#000000" d="M684.964,-508.1177C707.4861,-497.8544 738.6011,-483.6754 764.4592,-471.892"/>
<polygon fill="#000000" stroke="#000000" points="766.0741,-475.0025 773.7224,-467.6708 763.1713,-468.6327 766.0741,-475.0025"/>
</g>
<!-- [root] root&#45;&gt;[root] provider.azurerm (close) -->
<g id="edge35" class="edge">
<title>[root] root&#45;&gt;[root] provider.azurerm (close)</title>
<path fill="none" stroke="#000000" d="M624.036,-508.1177C601.1944,-497.7089 569.5145,-483.2724 543.4436,-471.392"/>
<polygon fill="#000000" stroke="#000000" points="544.6702,-468.1048 534.1191,-467.1429 541.7675,-474.4746 544.6702,-468.1048"/>
</g>
</g>
</svg>
